<svg width="626" height="784" viewBox="0 0 626 784" fill="none" xmlns="http://www.w3.org/2000/svg">
<g filter="url(#filter0_f_75_2)">
<path d="M65.7877 373.142C-17.5084 188.834 195.991 -110.788 264.739 154.161L213 133.329L192.5 262.329L187.677 460.53L192.5 494.829L213 571.329L308.859 596.615L542.928 548.172C558.07 561.891 586.716 699.565 578.144 667.146C574.741 654.273 424.859 722.3 405.582 737.531C386.775 729.965 185.631 664.234 181.074 673.049C176.517 681.865 129.339 680.607 103.597 685.31C99.1138 670.239 77.944 400.041 65.7877 373.142Z" fill="white"/>
<path d="M65.7877 373.142C-17.5084 188.834 195.991 -110.788 264.739 154.161L213 133.329L192.5 262.329L187.677 460.53L192.5 494.829L213 571.329L308.859 596.615L542.928 548.172C558.07 561.891 586.716 699.565 578.144 667.146C574.741 654.273 424.859 722.3 405.582 737.531C386.775 729.965 185.631 664.234 181.074 673.049C176.517 681.865 129.339 680.607 103.597 685.31C99.1138 670.239 77.944 400.041 65.7877 373.142Z" stroke="white"/>
</g>
<g filter="url(#filter1_f_75_2)">
<path d="M548.616 409.846C620.541 593.492 448.684 892.306 383.411 628.27L404.5 598.33L404.5 518.83L409.5 409.847L404.5 324.83L404.5 267.829L393.5 201.829L314.5 183.829L265.5 183.829L105.5 209.33C93.4611 195.667 114.134 84.8839 122.24 117.192C125.459 130.02 233.949 62.0983 247.563 46.9023C262.02 54.4294 501.055 107.512 504 98.7213C508.141 113.74 538.119 383.045 548.616 409.846Z" fill="white"/>
<path d="M504 98.7213C508.141 113.74 538.119 383.045 548.616 409.846C620.541 593.492 448.684 892.306 383.411 628.27L404.5 598.33L404.5 518.83L409.5 409.847L404.5 324.83L404.5 267.829L393.5 201.829L314.5 183.829L265.5 183.829L105.5 209.33C93.4611 195.667 114.134 84.884 122.24 117.192C125.459 130.02 233.949 62.0983 247.563 46.9023C262.02 54.4294 501.055 107.512 504 98.7213ZM504 98.7213C485.002 103.429 506.946 89.931 504 98.7213Z" stroke="white"/>
</g>
<defs>
<filter id="filter0_f_75_2" x="0.590649" y="3.2563" width="625.322" height="780.547" filterUnits="userSpaceOnUse" color-interpolation-filters="sRGB">
<feFlood flood-opacity="0" result="BackgroundImageFix"/>
<feBlend mode="normal" in="SourceGraphic" in2="BackgroundImageFix" result="shape"/>
<feGaussianBlur stdDeviation="22.85" result="effect1_foregroundBlur_75_2"/>
</filter>
<filter id="filter1_f_75_2" x="55.6218" y="0.579052" width="556.464" height="778.192" filterUnits="userSpaceOnUse" color-interpolation-filters="sRGB">
<feFlood flood-opacity="0" result="BackgroundImageFix"/>
<feBlend mode="normal" in="SourceGraphic" in2="BackgroundImageFix" result="shape"/>
<feGaussianBlur stdDeviation="22.85" result="effect1_foregroundBlur_75_2"/>
</filter>
</defs>
</svg>
