<svg xmlns="http://www.w3.org/2000/svg" xmlns:xlink="http://www.w3.org/1999/xlink" width="500" zoomAndPan="magnify" viewBox="0 0 375 374.999991" height="500" preserveAspectRatio="xMidYMid meet" version="1.0"><defs><clipPath id="5d1de528b3"><path d="M 74.136719 9.792969 L 291.636719 9.792969 L 291.636719 187.542969 L 74.136719 187.542969 Z M 74.136719 9.792969 " clip-rule="nonzero"/></clipPath><clipPath id="57864937d0"><path d="M 74.324219 179.195312 L 291.824219 179.195312 L 291.824219 363.695312 L 74.324219 363.695312 Z M 74.324219 179.195312 " clip-rule="nonzero"/></clipPath></defs><g clip-path="url(#5d1de528b3)"><path fill="#ffda57" d="M 183.347656 9.84375 C 183.457031 9.832031 183.667969 9.808594 183.777344 9.792969 C 190.28125 24.253906 196.566406 38.8125 202.949219 53.332031 C 210.109375 69.636719 217.230469 85.964844 224.3125 102.3125 C 236.464844 90.433594 248.453125 78.390625 260.601562 66.519531 C 259.355469 86.894531 257.417969 107.230469 255.671875 127.570312 C 267.691406 114.765625 279.605469 101.847656 291.703125 89.117188 C 291.488281 91.4375 290.878906 93.683594 290.390625 95.957031 C 286.859375 112.070312 282.96875 128.105469 279.386719 144.207031 C 276.136719 158.648438 267.058594 171.539062 254.902344 179.90625 C 248.601562 184.257812 241.210938 187.476562 233.425781 187.363281 C 199.71875 187.363281 166.011719 187.367188 132.300781 187.375 C 127.285156 187.386719 122.351562 185.96875 117.878906 183.746094 C 101.785156 175.785156 89.402344 160.257812 85.992188 142.542969 C 82.699219 127.417969 79.226562 112.339844 75.894531 97.226562 C 75.371094 94.554688 74.625 91.925781 74.257812 89.226562 C 79.707031 95.222656 85.355469 101.027344 90.835938 106.988281 C 97.308594 113.828125 103.664062 120.773438 110.203125 127.546875 C 108.527344 107.125 106.640625 86.722656 105.289062 66.28125 C 107.425781 68.078125 109.347656 70.113281 111.378906 72.027344 C 120.632812 80.898438 129.875 89.785156 139.097656 98.691406 C 140.570312 100.078125 141.960938 101.554688 143.546875 102.816406 C 156.613281 71.742188 170.164062 40.867188 183.347656 9.84375 Z M 152.171875 105.300781 C 151.265625 107.675781 149.949219 110.011719 150.078125 112.636719 C 150.019531 122.558594 153.765625 132.152344 159.058594 140.410156 C 159.488281 132.371094 162.273438 124.714844 165.628906 117.46875 C 171.496094 104.03125 177.59375 90.683594 183.414062 77.222656 C 189.539062 90.980469 195.578125 104.773438 201.65625 118.546875 C 204.585938 125.238281 206.363281 132.222656 206.984375 139.5 C 207.910156 138.773438 208.390625 137.675781 208.980469 136.695312 C 213.578125 128.582031 216.402344 119.332031 216.347656 109.96875 C 216.40625 107.277344 215.894531 104.699219 214.808594 102.234375 C 204.632812 78.515625 194.15625 54.925781 183.773438 31.292969 C 172.984375 55.847656 162.453125 80.515625 152.171875 105.300781 Z M 115.390625 87.941406 C 116.195312 99.691406 117.453125 111.414062 118.414062 123.152344 C 119.40625 135.929688 126.328125 147.929688 136.316406 155.835938 C 143.910156 161.972656 153.542969 165.738281 163.378906 165.457031 C 161.601562 160.890625 160.289062 156.199219 159.449219 151.371094 C 154.144531 146.722656 149.425781 141.28125 146.320312 134.902344 C 143.097656 128.277344 141.160156 120.910156 141.433594 113.507812 C 141.566406 112.746094 140.851562 112.300781 140.414062 111.816406 C 132.019531 103.910156 123.816406 95.808594 115.390625 87.941406 Z M 225.007812 113.554688 C 224.855469 117.980469 224.167969 122.320312 222.941406 126.574219 C 221.714844 130.828125 219.992188 134.871094 217.765625 138.699219 C 214.832031 143.515625 211.203125 147.734375 206.871094 151.355469 C 206.261719 156.140625 205.128906 160.796875 203.472656 165.328125 C 205.714844 165.351562 207.9375 165.191406 210.152344 164.84375 C 212.367188 164.5 214.535156 163.972656 216.660156 163.265625 C 218.785156 162.558594 220.835938 161.679688 222.816406 160.628906 C 224.796875 159.582031 226.675781 158.375 228.453125 157.015625 C 238.253906 149.59375 245.226562 138.367188 247.152344 126.191406 C 248.425781 113.6875 249.488281 101.160156 250.519531 88.636719 C 242.09375 97.015625 233.417969 105.167969 225.007812 113.554688 Z M 171.144531 126.550781 C 167 136.449219 166.851562 147.769531 169.996094 157.960938 C 172.472656 165.851562 176.765625 173.519531 183.519531 178.496094 C 186.425781 176.121094 188.9375 173.382812 191.054688 170.289062 C 193.175781 167.191406 194.8125 163.855469 195.976562 160.289062 C 196.953125 157.351562 197.664062 154.347656 198.117188 151.285156 C 198.566406 148.222656 198.746094 145.144531 198.660156 142.046875 C 198.570312 138.953125 198.210938 135.890625 197.585938 132.855469 C 196.960938 129.824219 196.078125 126.871094 194.933594 123.992188 C 191.257812 115.097656 187.3125 106.3125 183.457031 97.496094 C 179.246094 107.132812 175.140625 116.820312 171.144531 126.550781 Z M 253.308594 142.496094 C 251.421875 144.5625 249.355469 146.5 247.902344 148.910156 C 242.820312 156.65625 236.019531 163.371094 227.800781 167.734375 C 219.265625 172.226562 209.347656 174.496094 199.730469 173.203125 C 198.511719 175.152344 197.15625 177.003906 195.667969 178.753906 C 208.253906 178.609375 220.847656 178.761719 233.441406 178.671875 C 237.257812 178.683594 240.875 177.84375 244.296875 176.15625 C 250.445312 172.984375 255.730469 168.730469 260.148438 163.40625 C 265.015625 157.453125 268.859375 150.511719 270.46875 142.941406 C 272.445312 134.351562 274.347656 125.738281 276.277344 117.132812 C 268.679688 125.644531 261.105469 134.171875 253.308594 142.496094 Z M 89.597656 117.148438 C 90.9375 123.800781 92.53125 130.40625 93.929688 137.050781 C 94.832031 141.160156 95.507812 145.34375 97.085938 149.265625 C 101.566406 160.683594 110.425781 170.238281 121.285156 175.875 C 124.746094 177.699219 128.433594 178.632812 132.34375 178.683594 C 145.253906 178.746094 158.15625 178.625 171.0625 178.75 C 169.632812 177.019531 168.324219 175.195312 167.140625 173.285156 C 160.234375 174.035156 153.472656 173.34375 146.859375 171.207031 C 135.609375 167.609375 125.851562 160.007812 119.074219 150.394531 C 117.953125 148.929688 117.113281 147.269531 115.90625 145.875 C 106.933594 136.484375 98.371094 126.71875 89.597656 117.148438 Z M 89.597656 117.148438 " fill-opacity="1" fill-rule="nonzero"/></g><g clip-path="url(#57864937d0)"><path fill="#ffda57" d="M 121.003906 267.410156 C 119.929688 280.910156 120.957031 294.246094 124.09375 307.421875 C 132.5625 298.011719 140.824219 288.417969 149.230469 278.953125 C 160.238281 307.28125 171.453125 335.53125 182.875 363.695312 C 194.066406 335.464844 205.378906 307.277344 216.277344 278.929688 C 224.65625 288.53125 232.972656 298.191406 241.628906 307.539062 C 244.980469 294.445312 245.726562 280.816406 244.945312 267.359375 C 260.394531 275.613281 276.136719 283.304688 291.804688 291.125 C 288.914062 281.738281 284.363281 272.953125 279.234375 264.609375 C 271.539062 252.058594 263.550781 239.695312 255.617188 227.296875 C 245.441406 211.355469 235.246094 195.429688 225.027344 179.515625 C 197.421875 179.417969 169.816406 179.394531 142.210938 179.457031 C 141.648438 179.550781 140.8125 179.230469 140.472656 179.875 C 134.78125 188.632812 129.210938 197.472656 123.632812 206.300781 C 114.484375 220.90625 105.199219 235.417969 96.058594 250.03125 C 87.882812 263.257812 78.9375 276.308594 74.148438 291.253906 C 89.871094 283.511719 105.582031 275.742188 121.003906 267.410156 Z M 236.699219 289.0625 C 228.90625 280.472656 221.414062 271.617188 213.75 262.90625 C 208.429688 276.507812 202.964844 290.054688 197.6875 303.675781 C 192.726562 316.160156 187.929688 328.714844 182.761719 341.109375 C 172.367188 315.0625 162.179688 288.921875 151.796875 262.863281 C 144.125 271.519531 136.601562 280.3125 128.9375 288.980469 C 127.894531 280.0625 127.886719 270.929688 129.726562 262.113281 C 141.300781 255.378906 151.613281 247.070312 160.660156 237.195312 C 165.976562 231.289062 170.75 224.96875 174.972656 218.238281 C 177.8125 213.878906 179.953125 209.09375 182.796875 204.75 C 186.847656 211.925781 190.753906 219.21875 195.699219 225.84375 C 201.089844 233.222656 207.1875 239.960938 213.992188 246.058594 C 220.800781 252.15625 228.167969 257.476562 236.09375 262.023438 C 237.910156 270.902344 237.820312 280.101562 236.699219 289.0625 Z M 219.910156 187.683594 C 229.878906 203.136719 239.722656 218.664062 249.640625 234.144531 C 257.695312 246.761719 265.777344 259.359375 273.644531 272.09375 C 263.285156 266.886719 252.90625 261.710938 242.800781 256.03125 C 239.472656 242.25 232.757812 229.542969 224.867188 217.863281 C 217.707031 207.414062 209.277344 197.929688 201.828125 187.695312 C 207.851562 187.6875 213.882812 187.683594 219.910156 187.683594 Z M 191.175781 187.601562 C 195.847656 193.882812 200.308594 200.320312 205.203125 206.429688 C 211.023438 213.765625 217.136719 220.90625 222.074219 228.890625 C 226.03125 235.082031 229.402344 241.582031 232.1875 248.382812 C 222.417969 241.695312 213.371094 233.863281 205.890625 224.660156 C 196.660156 213.449219 189.828125 200.566406 182.792969 187.933594 C 175.664062 200.625 168.867188 213.632812 159.609375 224.945312 C 152.128906 234.179688 143.433594 242.074219 133.523438 248.636719 C 138.902344 235.335938 146.792969 223.183594 155.882812 212.136719 C 162.355469 204.253906 168.367188 196.015625 174.269531 187.699219 C 179.90625 187.570312 185.542969 187.773438 191.175781 187.601562 Z M 145.660156 187.707031 C 151.742188 187.757812 157.824219 187.695312 163.914062 187.71875 C 154.957031 199.941406 144.675781 211.207031 136.851562 224.234375 C 130.851562 234.171875 125.65625 244.746094 122.886719 256.070312 C 113.011719 262.019531 102.671875 267.164062 92.332031 272.253906 C 110.050781 244.035156 127.824219 215.855469 145.660156 187.707031 Z M 145.660156 187.707031 " fill-opacity="1" fill-rule="nonzero"/></g><path fill="#ffda57" d="M 182.769531 269.921875 C 181.484375 266.953125 180.460938 263.878906 179.296875 260.855469 C 175.710938 251.105469 172.070312 241.378906 168.453125 231.640625 C 166.210938 233.777344 164.332031 236.265625 162.074219 238.394531 C 164.925781 246.058594 167.691406 253.757812 170.539062 261.421875 C 174.320312 271.570312 177.96875 281.792969 182.742188 291.527344 C 186.097656 284.757812 188.742188 277.664062 191.421875 270.609375 C 195.445312 259.851562 199.367188 249.050781 203.4375 238.3125 C 201.304688 236.050781 199.1875 233.765625 197.1875 231.378906 C 192.375 244.222656 187.609375 257.089844 182.769531 269.921875 Z M 182.769531 269.921875 " fill-opacity="1" fill-rule="nonzero"/></svg>